<svg width="26" height="26" viewBox="0 0 26 26" fill="none" xmlns="http://www.w3.org/2000/svg">
<g clip-path="url(#clip0_29_2)">
<mask id="mask0_29_2" style="mask-type:luminance" maskUnits="userSpaceOnUse" x="0" y="0" width="26" height="26">
<path d="M0 0H26V26H0V0Z" fill="white"/>
<path d="M6.712 5.5H5.5C5.36739 5.5 5.24021 5.44732 5.14645 5.35355C5.05268 5.25979 5 5.13261 5 5C5 4.86739 5.05268 4.74021 5.14645 4.64645C5.24021 4.55268 5.36739 4.5 5.5 4.5H7.103C7.21453 4.50003 7.32285 4.53735 7.41073 4.60602C7.49861 4.6747 7.56101 4.77078 7.588 4.879L9.485 12.479C9.51367 12.6064 9.49135 12.74 9.42281 12.8512C9.35427 12.9623 9.24495 13.0423 9.11823 13.0739C8.99151 13.1055 8.85745 13.0863 8.74472 13.0203C8.63199 12.9544 8.54954 12.847 8.515 12.721L6.712 5.5Z" fill="black"/>
<path fill-rule="evenodd" clip-rule="evenodd" d="M18.495 10.5H10.505C10.355 10.5 10.205 10.517 10.058 10.55C9.53809 10.6719 9.08757 10.9946 8.80498 11.4478C8.52238 11.9009 8.43072 12.4475 8.55003 12.968L9.33303 16.429C9.43229 16.8742 9.68018 17.2723 10.0359 17.5579C10.3916 17.8434 10.8339 17.9993 11.29 18H17.713C18.1686 17.9986 18.6101 17.8425 18.9653 17.5572C19.3205 17.272 19.5683 16.8745 19.668 16.43L20.451 12.968C20.5196 12.6733 20.5208 12.3669 20.4546 12.0716C20.3884 11.7764 20.2564 11.4999 20.0685 11.2627C19.8806 11.0255 19.6417 10.8337 19.3694 10.7017C19.0972 10.5696 18.7976 10.5007 18.495 10.5ZM10.283 11.525C10.3562 11.5083 10.431 11.4999 10.506 11.5H18.495C18.6475 11.5008 18.7978 11.5361 18.9347 11.6031C19.0717 11.6701 19.1917 11.7672 19.2859 11.887C19.3801 12.0069 19.446 12.1465 19.4788 12.2954C19.5115 12.4443 19.5102 12.5987 19.475 12.747L18.691 16.209C18.6416 16.4324 18.5177 16.6324 18.3396 16.7762C18.1615 16.9199 17.9399 16.9988 17.711 17H11.29C10.822 17 10.415 16.672 10.31 16.209L9.52703 12.747C9.46634 12.4846 9.51187 12.2089 9.65369 11.98C9.7955 11.7511 10.0221 11.5875 10.284 11.525H10.283Z" fill="black"/>
<path d="M20 19.75C20 19.9798 19.9547 20.2074 19.8668 20.4197C19.7788 20.632 19.6499 20.8249 19.4874 20.9874C19.3249 21.1499 19.132 21.2788 18.9197 21.3668C18.7074 21.4547 18.4798 21.5 18.25 21.5C18.0202 21.5 17.7926 21.4547 17.5803 21.3668C17.368 21.2788 17.1751 21.1499 17.0126 20.9874C16.8501 20.8249 16.7212 20.632 16.6332 20.4197C16.5453 20.2074 16.5 19.9798 16.5 19.75C16.5 19.2859 16.6844 18.8408 17.0126 18.5126C17.3408 18.1844 17.7859 18 18.25 18C18.7141 18 19.1592 18.1844 19.4874 18.5126C19.8156 18.8408 20 19.2859 20 19.75ZM13 19.75C13 20.2141 12.8156 20.6592 12.4874 20.9874C12.1592 21.3156 11.7141 21.5 11.25 21.5C10.7859 21.5 10.3408 21.3156 10.0126 20.9874C9.68437 20.6592 9.5 20.2141 9.5 19.75C9.5 19.2859 9.68437 18.8408 10.0126 18.5126C10.3408 18.1844 10.7859 18 11.25 18C11.7141 18 12.1592 18.1844 12.4874 18.5126C12.8156 18.8408 13 19.2859 13 19.75Z" fill="black"/>
</mask>
<g mask="url(#mask0_29_2)">
<path d="M13 26C20.1797 26 26 20.1797 26 13C26 5.8203 20.1797 0 13 0C5.8203 0 0 5.8203 0 13C0 20.1797 5.8203 26 13 26Z" fill="currentColor"/>
</g>
</g>
<defs>
<clipPath id="clip0_29_2">
<rect width="26" height="26" fill="white"/>
</clipPath>
</defs>
</svg>
