<svg width="18" height="19" viewBox="0 0 18 19" fill="none" xmlns="http://www.w3.org/2000/svg">
<path d="M18 13.48L12.7259 18.6567L10.1789 16.1519L11.031 15.3169L12.7259 16.9683L17.1478 12.645L18 13.48ZM8.48396 5.9375H4.84797V4.75H8.48396V5.9375ZM8.48396 8.3125H4.84797V7.125H8.48396V8.3125ZM4.84797 9.5H8.48396V10.6875H4.84797V9.5ZM3.63598 5.9375H2.42399V4.75H3.63598V5.9375ZM3.63598 8.3125H2.42399V7.125H3.63598V8.3125ZM2.42399 9.5H3.63598V10.6875H2.42399V9.5ZM9.69595 5.9375V1.1875H1.21199V17.8125H9.69595V19H0V0H10.5576L15.7559 5.09326V11.875L14.5439 13.0625V5.9375H9.69595ZM10.9079 4.75H13.6823L10.9079 2.03174V4.75Z" fill="currentColor"/>
</svg>
