<svg width="36" height="36" viewBox="0 0 36 36" fill="none" xmlns="http://www.w3.org/2000/svg">
<g clip-path="url(#clip0_44_11)">
<path d="M19.61 18L24.47 13.14C24.6338 12.9487 24.7194 12.7026 24.7097 12.4509C24.7 12.1993 24.5957 11.9605 24.4176 11.7824C24.2395 11.6043 24.0007 11.5 23.749 11.4903C23.4974 11.4806 23.2513 11.5662 23.06 11.73L18.2 16.54L13.31 11.65C13.1187 11.4862 12.8726 11.4006 12.6209 11.4103C12.3693 11.42 12.1305 11.5243 11.9524 11.7024C11.7743 11.8805 11.67 12.1193 11.6603 12.3709C11.6506 12.6226 11.7362 12.8687 11.9 13.06L16.78 18L12 22.72C11.8953 22.8096 11.8103 22.92 11.7503 23.044C11.6902 23.1681 11.6565 23.3032 11.6512 23.4409C11.6459 23.5787 11.6691 23.716 11.7194 23.8443C11.7696 23.9726 11.8459 24.0892 11.9433 24.1867C12.0408 24.2841 12.1573 24.3604 12.2857 24.4106C12.414 24.4609 12.5513 24.4841 12.689 24.4788C12.8268 24.4735 12.9619 24.4397 13.086 24.3797C13.21 24.3197 13.3203 24.2347 13.41 24.13L18.18 19.36L22.92 24.1C23.1113 24.2638 23.3574 24.3494 23.609 24.3397C23.8607 24.33 24.0995 24.2257 24.2776 24.0476C24.4557 23.8695 24.56 23.6307 24.5697 23.3791C24.5794 23.1274 24.4938 22.8813 24.33 22.69L19.61 18Z" fill="currentColor"/>
<path d="M18 34C14.8355 34 11.7421 33.0616 9.11088 31.3035C6.4797 29.5454 4.42894 27.0466 3.21793 24.1229C2.00693 21.1993 1.69008 17.9823 2.30744 14.8786C2.92481 11.7749 4.44866 8.92393 6.6863 6.68629C8.92394 4.44865 11.7749 2.9248 14.8786 2.30744C17.9823 1.69007 21.1993 2.00692 24.1229 3.21793C27.0466 4.42893 29.5454 6.47969 31.3035 9.11088C33.0616 11.7421 34 14.8355 34 18C34 22.2435 32.3143 26.3131 29.3137 29.3137C26.3131 32.3143 22.2435 34 18 34ZM18 4C15.2311 4 12.5243 4.82109 10.222 6.35943C7.91974 7.89776 6.12532 10.0843 5.06569 12.6424C4.00607 15.2006 3.72882 18.0155 4.26901 20.7313C4.80921 23.447 6.14258 25.9416 8.10051 27.8995C10.0584 29.8574 12.553 31.1908 15.2687 31.731C17.9845 32.2712 20.7994 31.9939 23.3576 30.9343C25.9157 29.8747 28.1022 28.0803 29.6406 25.778C31.1789 23.4757 32 20.7689 32 18C32 14.287 30.525 10.726 27.8995 8.1005C25.274 5.475 21.713 4 18 4Z" fill="currentColor"/>
</g>
<defs>
<clipPath id="clip0_44_11">
<rect width="36" height="36" fill="white"/>
</clipPath>
</defs>
</svg>
